<?xml version="1.0" standalone="no"?>
<!DOCTYPE svg PUBLIC "-//W3C//DTD SVG 20010904//EN"
 "http://www.w3.org/TR/2001/REC-SVG-20010904/DTD/svg10.dtd">
<svg version="1.0" xmlns="http://www.w3.org/2000/svg"
 width="500.000000pt" height="500.000000pt" viewBox="0 0 500.000000 500.000000"
 preserveAspectRatio="xMidYMid meet">
<metadata>
Created by potrace 1.11, written by Peter Selinger 2001-2013
</metadata>
<g transform="translate(0.000000,500.000000) scale(0.100000,-0.100000)"
fill="#000000" stroke="none">
<path d="M2443 4925 c-29 -19 -53 -31 -53 -27 0 4 -4 2 -8 -4 -4 -5 -38 -27
-77 -49 -38 -21 -89 -51 -112 -67 -24 -16 -43 -25 -43 -21 0 4 -4 4 -8 -2 -4
-5 -18 -16 -31 -23 -69 -39 -99 -57 -126 -73 -16 -10 -43 -25 -60 -34 -16 -8
-46 -25 -65 -36 -19 -12 -60 -35 -90 -52 -30 -17 -66 -38 -79 -49 -13 -10 -28
-18 -33 -18 -4 0 -25 -11 -46 -23 -78 -49 -97 -61 -97 -57 0 3 -21 -10 -46
-27 -26 -18 -49 -29 -53 -26 -3 4 -6 1 -6 -5 0 -7 -7 -12 -15 -12 -8 0 -15 -5
-15 -11 0 -5 -4 -7 -10 -4 -5 3 -10 2 -10 -3 0 -4 -19 -18 -42 -30 -24 -12
-65 -36 -93 -52 -27 -16 -57 -33 -65 -37 -8 -4 -43 -24 -78 -45 -34 -21 -65
-38 -69 -38 -3 0 -14 -6 -22 -14 -9 -7 -43 -28 -76 -46 -33 -17 -89 -49 -125
-71 -36 -22 -73 -42 -83 -45 -9 -4 -17 -11 -17 -16 0 -5 -4 -7 -9 -3 -6 3 -14
-3 -20 -12 -6 -10 -11 -15 -11 -10 0 4 -12 0 -26 -9 -33 -22 -81 -49 -122 -69
-18 -8 -41 -23 -52 -33 -12 -9 -24 -17 -28 -18 -4 0 -15 -4 -24 -8 -17 -8 -18
-77 -18 -1242 0 -1090 2 -1234 15 -1234 8 0 15 -4 15 -9 0 -5 8 -11 18 -14 18
-6 47 -23 252 -142 69 -40 148 -85 175 -100 28 -15 61 -35 75 -44 14 -9 37
-23 52 -31 16 -7 28 -17 28 -22 0 -5 4 -7 9 -4 5 3 20 -3 34 -14 14 -11 30
-20 36 -20 6 0 11 -4 11 -8 0 -5 16 -15 35 -22 20 -8 41 -20 47 -27 5 -7 14
-10 19 -7 5 3 9 0 9 -5 0 -6 7 -11 15 -11 8 0 15 -4 15 -10 0 -5 4 -10 9 -10
5 0 80 -41 168 -91 87 -51 174 -101 193 -112 19 -10 72 -41 118 -68 45 -27 87
-49 92 -49 6 0 10 -4 10 -8 0 -5 16 -14 35 -22 19 -8 35 -17 35 -22 0 -4 4 -8
10 -8 5 0 39 -18 75 -40 36 -22 67 -40 69 -40 3 0 41 -22 85 -49 44 -27 81
-47 84 -45 2 3 10 -2 17 -11 7 -8 19 -15 26 -15 8 0 14 -4 14 -10 0 -5 5 -10
10 -10 6 0 40 -18 76 -40 36 -22 68 -40 71 -40 3 0 18 -9 34 -21 l29 -20 178
102 c97 56 192 109 210 118 17 8 32 19 32 23 0 4 5 8 11 8 6 0 24 9 40 21 16
11 29 17 29 12 0 -4 4 -3 8 3 4 6 32 24 62 41 30 16 85 48 122 71 36 22 69 38
72 35 3 -4 6 -1 6 5 0 7 5 12 10 12 6 0 36 16 66 35 30 19 57 35 59 35 3 0 22
11 43 24 70 44 137 80 145 78 4 -1 7 3 7 8 0 6 4 10 8 10 5 0 49 24 98 53 49
30 116 69 149 87 33 18 62 36 65 39 3 3 28 17 55 31 28 14 52 28 55 31 3 4 25
17 50 29 25 12 47 25 50 29 3 3 30 19 60 35 30 16 57 32 60 35 3 3 19 13 35
21 17 8 42 22 56 32 14 10 29 15 33 11 3 -3 6 -2 6 4 0 6 25 23 55 38 30 16
55 32 55 37 0 5 4 7 9 4 5 -3 14 1 21 9 7 8 18 15 24 15 6 0 28 11 49 25 l37
26 0 1223 c0 967 -3 1226 -12 1234 -12 9 -39 25 -138 81 -25 13 -48 29 -51 34
-3 5 -9 7 -12 5 -4 -1 -17 6 -29 17 -13 10 -23 18 -23 16 0 -2 -12 3 -27 10
-16 7 -28 16 -28 21 0 5 -4 6 -10 3 -5 -3 -10 -1 -10 5 0 6 -4 9 -9 5 -5 -3
-12 -1 -15 4 -4 5 -57 37 -119 72 -61 34 -114 65 -117 68 -3 4 -16 12 -30 19
-56 29 -109 59 -122 69 -7 6 -38 24 -68 40 -101 55 -155 87 -168 100 -8 7 -18
11 -23 8 -5 -4 -9 -3 -9 2 0 4 -10 13 -23 19 -22 11 -386 221 -442 255 -16 10
-41 24 -55 30 -13 5 -27 13 -30 17 -5 7 -17 14 -92 55 -22 12 -56 32 -76 44
-20 12 -53 30 -72 40 -19 10 -36 21 -38 26 -2 4 -8 7 -14 7 -6 0 -29 12 -52
28 -23 15 -64 38 -91 52 -28 14 -52 28 -55 31 -5 7 -67 39 -72 38 -2 0 -27
-15 -55 -34z"/>
</g>
</svg>
